<?xml version="1.0" standalone="no"?>
<!DOCTYPE svg PUBLIC "-//W3C//DTD SVG 20010904//EN"
 "http://www.w3.org/TR/2001/REC-SVG-20010904/DTD/svg10.dtd">
<svg version="1.0" xmlns="http://www.w3.org/2000/svg"
 width="434.000000pt" height="434.000000pt" viewBox="0 0 434.000000 434.000000"
 preserveAspectRatio="xMidYMid meet">
<metadata>
Created by potrace 1.11, written by Peter Selinger 2001-2013
</metadata>
<g transform="translate(0.000000,434.000000) scale(0.100000,-0.100000)"
fill="#000000" stroke="none">
<path d="M0 2425 l0 -165 85 0 85 0 0 -85 0 -85 85 0 85 0 0 -90 0 -90 90 0
90 0 0 -80 0 -80 605 0 605 0 0 80 0 79 88 3 87 3 3 88 3 87 84 0 85 0 0 175
0 175 49 0 c47 0 50 2 53 28 3 26 5 27 68 27 63 0 65 -1 68 -27 3 -27 6 -28
58 -28 l54 0 0 -175 0 -174 86 -3 86 -3 1 -85 2 -85 88 -3 87 -3 0 -79 0 -80
520 0 520 0 0 80 0 79 88 3 87 3 3 88 3 87 84 0 85 0 0 85 0 85 85 0 85 0 0
165 0 165 -2170 0 -2170 0 0 -165z m510 -80 l0 -85 90 0 90 0 0 85 0 85 85 0
85 0 0 -85 0 -85 90 0 90 0 0 -85 0 -85 -90 0 -90 0 0 85 0 85 -85 0 -85 0 0
-85 0 -85 -90 0 -90 0 0 85 0 85 -85 0 -85 0 0 85 0 85 85 0 85 0 0 -85z
m2270 0 l0 -85 85 0 85 0 0 85 0 85 90 0 90 0 0 -85 0 -85 85 0 85 0 0 -85 0
-85 -85 0 -85 0 0 85 0 85 -90 0 -90 0 0 -85 0 -85 -85 0 -85 0 0 85 0 84 -87
3 -88 3 -3 83 -3 82 91 0 90 0 0 -85z m-1920 -350 l0 -85 -85 0 -85 0 0 85 0
85 85 0 85 0 0 -85z m350 0 l0 -85 -85 0 -85 0 0 85 0 85 85 0 85 0 0 -85z
m1920 0 l0 -85 -90 0 -90 0 0 85 0 85 90 0 90 0 0 -85z m348 3 l-3 -83 -87 -3
-88 -3 0 86 0 85 90 0 91 0 -3 -82z"/>
</g>
</svg>
